<svg width="336" height="98" viewBox="0 0 336 98" fill="none" xmlns="http://www.w3.org/2000/svg">
<path fill-rule="evenodd" clip-rule="evenodd" d="M57.8219 31.6483L23.0563 51.3195C21.551 52.1712 19.7124 52.1845 18.1949 51.3546L0 41.4041V50.018L16.6628 59.5545C19.124 60.9631 22.147 60.9635 24.6086 59.5556L63.4833 37.3205C65.4442 36.199 65.5089 33.3945 63.6018 32.1837L62.9642 31.7789C61.4056 30.7894 59.4287 30.7392 57.8219 31.6483ZM57.8219 49.4872L23.0563 69.1584C21.551 70.0101 19.7124 70.0234 18.1949 69.1935L0 59.243V67.8568L16.6628 77.3934C19.124 78.802 22.147 78.8024 24.6086 77.3944L63.4833 55.1594C65.4442 54.0379 65.5089 51.2334 63.6018 50.0226L62.9642 49.6178C61.4056 48.6283 59.4287 48.5781 57.8219 49.4872ZM23.0563 86.7048L57.8219 67.0336C59.4287 66.1245 61.4056 66.1747 62.9642 67.1642L63.6018 67.5691C65.5089 68.7799 65.4442 71.5843 63.4833 72.7059L24.6086 94.9409C22.147 96.3488 19.124 96.3484 16.6628 94.9398L0 85.4033V76.7894L18.1949 86.74C19.7124 87.5698 21.551 87.5566 23.0563 86.7048Z" fill="white"/>
<path d="M95.488 97.024C92.672 97.024 90.4107 96.256 88.704 94.72C86.9973 93.184 86.1013 91.2213 86.016 88.832C86.016 86.4427 86.9973 84.0107 88.96 81.536L107.904 58.496V68.608L90.496 47.36C88.5333 44.8 87.552 42.368 87.552 40.064C87.6373 37.6747 88.5333 35.712 90.24 34.176C91.9467 32.64 94.208 31.872 97.024 31.872C99.7547 31.872 101.973 32.3413 103.68 33.28C105.472 34.1333 107.179 35.584 108.8 37.632L120.704 52.992H112.768L124.672 37.632C126.293 35.584 128 34.1333 129.792 33.28C131.584 32.3413 133.803 31.872 136.448 31.872C139.349 31.872 141.611 32.64 143.232 34.176C144.939 35.712 145.792 37.6747 145.792 40.064C145.877 42.4533 144.896 44.8853 142.848 47.36L125.44 68.608V58.496L144.512 81.536C146.56 83.9253 147.541 86.3147 147.456 88.704C147.371 91.0933 146.475 93.0987 144.768 94.72C143.061 96.256 140.757 97.024 137.856 97.024C135.211 97.024 132.992 96.5973 131.2 95.744C129.408 94.8053 127.701 93.312 126.08 91.264L112.768 74.24H120.576L107.136 91.264C105.6 93.2267 103.936 94.6773 102.144 95.616C100.437 96.5547 98.2187 97.024 95.488 97.024ZM171.17 97.152C167.586 97.152 164.813 96.0853 162.85 93.952C160.887 91.8187 159.906 88.7467 159.906 84.736V44.288C159.906 40.2773 160.887 37.2053 162.85 35.072C164.813 32.9387 167.586 31.872 171.17 31.872C174.839 31.872 177.655 32.9387 179.618 35.072C181.666 37.2053 182.69 40.2773 182.69 44.288V84.736C182.69 88.7467 181.709 91.8187 179.746 93.952C177.783 96.0853 174.925 97.152 171.17 97.152ZM171.17 22.784C167.159 22.784 164.045 21.8453 161.826 19.968C159.693 18.0907 158.626 15.36 158.626 11.776C158.626 8.27733 159.693 5.58933 161.826 3.712C164.045 1.83466 167.159 0.895996 171.17 0.895996C175.351 0.895996 178.509 1.83466 180.642 3.712C182.775 5.58933 183.842 8.27733 183.842 11.776C183.842 15.36 182.775 18.0907 180.642 19.968C178.509 21.8453 175.351 22.784 171.17 22.784ZM217.794 97.408C212.93 97.408 208.621 96.512 204.866 94.72C201.197 92.928 198.295 90.496 196.162 87.424C194.114 84.2667 193.09 80.6827 193.09 76.672C193.09 72.064 194.285 68.4373 196.674 65.792C199.063 63.1467 202.903 61.2693 208.194 60.16C213.485 58.9653 220.525 58.368 229.314 58.368H236.354V69.12H229.314C225.986 69.12 223.213 69.376 220.994 69.888C218.861 70.3147 217.282 71.04 216.258 72.064C215.234 73.0027 214.722 74.24 214.722 75.776C214.722 77.7387 215.405 79.36 216.77 80.64C218.221 81.92 220.269 82.56 222.914 82.56C225.047 82.56 226.925 82.0907 228.546 81.152C230.253 80.2133 231.618 78.9333 232.642 77.312C233.666 75.6053 234.178 73.6427 234.178 71.424V56.576C234.178 53.504 233.367 51.328 231.746 50.048C230.21 48.768 227.522 48.128 223.682 48.128C221.634 48.128 219.33 48.384 216.77 48.896C214.21 49.3227 211.351 50.1333 208.194 51.328C205.89 52.1813 203.927 52.3093 202.306 51.712C200.685 51.1147 199.405 50.0907 198.466 48.64C197.613 47.1893 197.186 45.6107 197.186 43.904C197.271 42.1973 197.826 40.576 198.85 39.04C199.959 37.504 201.623 36.3093 203.842 35.456C207.938 33.92 211.693 32.896 215.106 32.384C218.605 31.872 221.805 31.616 224.706 31.616C231.703 31.616 237.463 32.64 241.986 34.688C246.594 36.6507 250.007 39.7227 252.226 43.904C254.53 48 255.682 53.2907 255.682 59.776V85.632C255.682 89.3867 254.786 92.2453 252.994 94.208C251.202 96.1707 248.599 97.152 245.186 97.152C241.687 97.152 238.999 96.1707 237.122 94.208C235.33 92.2453 234.434 89.3867 234.434 85.632V82.304L235.202 84.096C234.775 86.8267 233.794 89.1733 232.258 91.136C230.722 93.0987 228.717 94.6347 226.242 95.744C223.767 96.8533 220.951 97.408 217.794 97.408ZM300.528 97.408C293.531 97.408 287.429 96.0853 282.224 93.44C277.019 90.7947 272.965 86.9973 270.064 82.048C267.163 77.0987 265.712 71.2533 265.712 64.512C265.712 59.392 266.523 54.8267 268.144 50.816C269.765 46.72 272.112 43.264 275.184 40.448C278.256 37.5467 281.925 35.3707 286.192 33.92C290.459 32.384 295.237 31.616 300.528 31.616C307.525 31.616 313.627 32.9387 318.832 35.584C324.037 38.2293 328.048 42.0267 330.864 46.976C333.765 51.84 335.216 57.6853 335.216 64.512C335.216 69.5467 334.405 74.112 332.784 78.208C331.163 82.304 328.816 85.8027 325.744 88.704C322.757 91.52 319.088 93.696 314.736 95.232C310.469 96.6827 305.733 97.408 300.528 97.408ZM300.528 80.64C302.832 80.64 304.88 80.0853 306.672 78.976C308.464 77.7813 309.829 76.032 310.768 73.728C311.792 71.3387 312.304 68.2667 312.304 64.512C312.304 58.7947 311.195 54.6987 308.976 52.224C306.757 49.664 303.941 48.384 300.528 48.384C298.224 48.384 296.176 48.9387 294.384 50.048C292.592 51.1573 291.184 52.9067 290.16 55.296C289.136 57.6 288.624 60.672 288.624 64.512C288.624 70.144 289.733 74.24 291.952 76.8C294.171 79.36 297.029 80.64 300.528 80.64Z" fill="white"/>
</svg>
